# AST/ASF file generated using VICON BodyLanguage
# -----------------------------------------------
:version 1.10
:name VICON
:units
  mass 1.0
  length 0.45
  angle deg
:documentation
   .ast/.asf automatically generated from VICON data using
   VICON BodyBuilder and BodyLanguage model FoxedUp or BRILLIANT.MOD
:root
   order TX TY TZ RX RY RZ
   axis XYZ
   position 0 0 0  
   orientation 0 0 0 
:bonedata
  begin
     id 1 
     name lhipjoint
     direction 0.610259 -0.730986 0.305356 
     length 2.50941 
     axis 0 0 0  XYZ
  end
  begin
     id 2 
     name lfemur
     direction 0.34202 -0.939693 0  
     length 7.48822  
     axis 0 0 20  XYZ
    dof rx ry rz
    limits (-160.0 20.0)
           (-70.0 70.0)
           (-60.0 70.0)
  end
  begin
     id 3 
     name ltibia
     direction 0.34202 -0.939693 0   
     length 7.60141   
     axis 0 0 20   XYZ
    dof rx
    limits (-10.0 170.0)
  end
  begin
     id 4 
     name lfoot
     direction 0.0673488 -0.185039 0.980421   
     length 2.04049   
     axis -90 7.62852e-016 20   XYZ
    dof rx rz
    limits (-45.0 90.0)
           (-70.0 20.0)
  end
  begin
     id 5 
     name ltoes
     direction 1.5356e-011 -4.21729e-011 1   
     length 1.02897   
     axis -90 7.62852e-016 20   XYZ
    dof rx
    limits (-90.0 20.0)
  end
  begin
     id 6 
     name rhipjoint
     direction -0.57612 -0.754205 0.315056   
     length 2.43216  
     axis 0 0 0  XYZ 
  end
  begin
     id 7 
     name rfemur
     direction -0.34202 -0.939693 0   
     length 7.42799   
     axis 0 0 -20   XYZ
    dof rx ry rz
    limits (-160.0 20.0)
           (-70.0 70.0)
           (-70.0 60.0)
  end
  begin
     id 8 
     name rtibia
     direction -0.34202 -0.939693 0   
     length 7.69484   
     axis 0 0 -20   XYZ
    dof rx
    limits (-10.0 170.0)
 end
 begin
     id 9 
     name rfoot
     direction -0.111837 -0.30727 0.945028   
     length 2.15769  
     axis -90 -7.62852e-016 -20   XYZ
    dof rx rz
    limits (-45.0 90.0)
           (-20.0 70.0)
  end
  begin
     id 10 
     name rtoes
     direction -1.53539e-011 -4.21878e-011 1   
     length 1.07391   
     axis -90 -7.62852e-016 -20   XYZ
    dof rx
    limits (-90.0 20.0)
  end
  begin
     id 11 
     name lowerback
     direction 0.00552624 0.990109 -0.140195   
     length 2.12403   
     axis 0 0 0   XYZ
    dof rx ry rz
    limits (-20.0 45.0)
           (-30.0 30.0)
           (-30.0 30.0)
  end
  begin
     id 12 
     name upperback
     direction 0.00361898 0.999976 -0.00584723   
     length 2.13232   
     axis 0 0 0   XYZ
    dof rx ry rz
    limits (-20.0 45.0)
           (-30.0 30.0)
           (-30.0 30.0)
  end
  begin
     id 13 
     name thorax
     direction -0.000331275 0.998253 0.0590847   
     length 2.17688   
     axis 0 0 0   XYZ
    dof rx ry rz
    limits (-20.0 45.0)
           (-30.0 30.0)
           (-30.0 30.0)
  end
  begin
     id 14 
     name lowerneck
     direction -0.0561561 0.979832 0.19177   
     length 1.64159   
     axis 0 0 0   XYZ
    dof rx ry rz
    limits (-20.0 45.0)
           (-30.0 30.0)
           (-30.0 30.0)
  end
  begin
     id 15 
     name upperneck
     direction 0.0827153 0.979385 -0.184293   
     length 1.68939   
     axis 0 0 0   XYZ
    dof rx ry rz
    limits (-20.0 45.0)
           (-30.0 30.0)
           (-30.0 30.0)
  end
  begin
     id 16
     name head
     direction 0.0278583 0.995936 -0.0856488  
     length 1.70207  
     axis 0 0 0   XYZ
    dof rx ry rz
    limits (-20.0 45.0)
           (-30.0 30.0)
           (-30.0 30.0)
  end
  begin
     id 17 
     name lclavicle
     direction 0.950993 0.301131 -0.0702275  
     length 3.41652  
     axis 0 0 0   XYZ
    dof ry rz
    limits (-20.0 10.0)
           (0.0 20.0)
  end
  begin
     id 18 
     name lhumerus
     direction 1 -4.48981e-011 -3.9662e-029   
     length 5.32955   
     axis 180 -30 -90   XYZ
    dof rx ry rz
    limits (-60.0 90.0)
           (-90.0 90.0)
           (-90.0 90.0)
  end
  begin
     id 19
     name lradius
     direction 1 -4.48925e-011 -9.0549e-027   
     length 3.69232   
     axis 180 -30 -90   XYZ
    dof rx
    limits (-10.0 170.0)
  end
  begin
     id 20
     name lwrist
     direction 1 -4.49007e-011 -1.49005e-026   
     length 1.84616   
     axis 9.0955e-015 90 90   XYZ
    dof ry
    limits (-180.0 0.0)
 end
  begin
     id 21 
     name lhand
     direction 1 -4.49016e-011 -2.98023e-026   
     length 0.536598   
     axis 1.90115e-014 90 90   XYZ
    dof rx rz
    limits (-90.0 90.0)
           (-45.0 45.0)
  end
  begin
     id 22 
     name lfingers
     direction 1 -4.48924e-011 -5.9578e-026   
     length 0.432619   
     axis 3.80223e-014 90 90   XYZ
    dof rx
    limits (0.0 90.0)
  end
  begin
     id 23
     name lthumb
     direction 0.707107 -6.34947e-011 0.707107   
     length 0.621157   
     axis -90 45 -3.84942e-014   XYZ
    dof rx rz
    limits (-45.0 45.0)
           (-45.0 45.0)
  end
  begin
     id 24 
     name rclavicle
     direction -0.955495 0.276497 -0.102848   
     length 3.36357  
     axis 0 0 0   XYZ 
    dof ry rz
    limits (-10.0 20.0)
           (-20.0 0.0)
  end
  begin
     id 25 
     name rhumerus
     direction -1 -4.48961e-011 3.30983e-027  
     length 5.23431   
     axis 180 30 90   XYZ
    dof rx ry rz
    limits (-90.0 60.0)
           (-90.0 90.0)
           (-90.0 90.0)
  end
  begin
     id 26 
     name rradius
     direction -1 -4.48965e-011 -6.63263e-027   
     length 3.55301   
     axis 180 30 90   XYZ
    dof rx
    limits (-10.0 170.0)
  end
  begin
     id 27 
     name rwrist
     direction -1 -4.48942e-011 -1.48958e-026   
     length 1.77651   
     axis 9.0955e-015 -90 -90   XYZ
    dof ry
    limits (-180.0 0.0)
  end
  begin
     id 28
     name rhand
     direction -1 -4.48977e-011 -2.97966e-026   
     length 0.772522   
     axis 1.90115e-014 -90 -90   XYZ
    dof rx rz
    limits (-90.0 90.0)
           (-45.0 45.0)
  end
  begin
     id 29
     name rfingers
     direction -1 -4.49135e-011 -5.96389e-026   
     length 0.622827   
     axis 3.80223e-014 -90 -90   XYZ
    dof rx
    limits (0.0 90.0)
  end
  begin
     id 30
     name rthumb
     direction -0.707107 -6.34969e-011 0.707107   
     length 0.894259   
     axis -90 -45 3.84942e-014   XYZ
    dof rx rz
    limits (-45.0 45.0)
           (-45.0 45.0)
  end
:hierarchy
  begin
    root lhipjoint rhipjoint lowerback
    lhipjoint lfemur
    lfemur ltibia
    ltibia lfoot
    lfoot ltoes
    rhipjoint rfemur
    rfemur rtibia
    rtibia rfoot
    rfoot rtoes
    lowerback upperback
    upperback thorax
    thorax lowerneck lclavicle rclavicle
    lowerneck upperneck
    upperneck head
    lclavicle lhumerus
    lhumerus lradius
    lradius lwrist
    lwrist lhand lthumb
    lhand lfingers
    rclavicle rhumerus
    rhumerus rradius
    rradius rwrist
    rwrist rhand rthumb
    rhand rfingers
  end

#!OML:ASF F:\VICON\USERDATA\INSTALL\rory3\rory3.ASF
:FULLY-SPECIFIED
:DEGREES
462
root 15.0011 17.7374 -9.05933 -17.9758 -79.639 25.3875
lowerback 12.7457 0.760595 -5.26769
upperback 3.36745 0.166401 -0.802795
thorax -3.61804 0.0554172 2.10877
lowerneck -8.08472 -1.05235 -13.3357
upperneck 44.4126 -3.29419 5.55454
head 18.4253 -3.60797 4.302
rclavicle 2.34814e-014 6.4605e-015
rhumerus -28.2989 -13.1747 -80.6553
rradius 37.8538
rwrist 3.59979
rhand -15.211 9.11721
rfingers 7.12502
rthumb 10.9613 -20.5766
lclavicle 2.34814e-014 6.4605e-015
lhumerus -31.8984 5.74392 80.6325
lradius 37.8986
lwrist -4.34396
lhand -17.0927 23.3791
lfingers 7.12502
lthumb 9.14585 53.1608
rfemur -35.9469 7.55632 7.5602
rtibia 37.041
rfoot -14.1898 -5.45887
rtoes 7.28041
lfemur 2.30702 -2.08791 -24.0053
ltibia 9.46994
lfoot -13.5374 -0.359606
ltoes -24.5821
463
root 15.0857 17.7464 -9.05329 -18.3498 -79.6252 25.6887
lowerback 12.8064 0.855845 -5.4156
upperback 3.38865 0.266599 -0.827931
thorax -3.63666 0.104845 2.14984
lowerneck -7.97046 -1.00056 -13.4171
upperneck 44.4117 -3.22182 5.59325
head 18.3854 -3.58771 4.34804
rclavicle -3.47873e-015 2.38542e-015
rhumerus -28.4756 -12.8415 -80.8398
rradius 37.7408
rwrist 4.07149
rhand -15.3463 8.93894
rfingers 7.12502
rthumb 10.8307 -20.7618
lclavicle -3.47873e-015 2.38542e-015
lhumerus -31.8662 5.41792 80.4268
lradius 38.2815
lwrist -3.64937
lhand -17.1268 22.6713
lfingers 7.12502
lthumb 9.11298 52.4544
rfemur -36.0009 7.5429 7.61732
rtibia 37.3124
rfoot -14.5346 -5.3144
rtoes 7.32026
lfemur 1.93485 -1.90487 -24.1391
ltibia 9.75919
lfoot -13.6246 -0.509632
ltoes -25.4715
464
root 15.1663 17.754 -9.04569 -19.0014 -79.5532 26.3148
lowerback 12.822 0.938395 -5.60143
upperback 3.41521 0.347438 -0.870547
thorax -3.6238 0.143976 2.197
lowerneck -7.9731 -0.928497 -13.4567
upperneck 44.458 -3.10631 5.6248
head 18.3983 -3.54493 4.39261
rclavicle 3.23025e-015 1.5207e-014
rhumerus -28.6655 -12.6584 -81.0084
rradius 37.6528
rwrist 4.45203
rhand -14.9282 8.94622
rfingers 7.12502
rthumb 11.234 -20.733
lclavicle 3.23025e-015 1.5207e-014
lhumerus -31.8411 4.90802 80.3501
lradius 38.7793
lwrist -2.41963
lhand -16.9838 22.9129
lfingers 7.12502
lthumb 9.25102 52.6899
rfemur -36.0827 7.41033 7.61091
rtibia 37.6908
rfoot -14.9061 -5.02969
rtoes 6.98122
lfemur 1.50659 -1.76017 -24.3607
ltibia 10.0921
lfoot -13.6737 -0.816256
ltoes -25.3296
465
root 15.2452 17.7639 -9.03751 -19.0445 -79.4955 26.2957
lowerback 12.8419 1.0081 -5.66595
upperback 3.47843 0.42824 -0.891638
thorax -3.57476 0.180512 2.19856
lowerneck -7.98971 -0.863686 -13.4449
upperneck 44.4646 -3.00248 5.65048
head 18.3892 -3.49481 4.42172
rclavicle 9.44227e-015 1.2921e-014
rhumerus -28.8768 -12.8411 -81.1367
rradius 37.545
rwrist 5.20299
rhand -14.3614 9.19946
rfingers 7.12502
rthumb 11.7806 -20.4492
lclavicle 9.44227e-015 1.2921e-014
lhumerus -31.7955 4.62476 80.1675
lradius 39.2862
lwrist -1.53821
lhand -17.3786 23.5016
lfingers 7.12502
lthumb 8.87002 53.2952
rfemur -36.1019 7.0943 7.84962
rtibia 38.1745
rfoot -15.262 -4.6676
rtoes 5.69247
lfemur 1.18976 -2.07437 -24.4582
ltibia 10.2784
lfoot -13.5617 -0.840578
ltoes -24.5812
466
root 15.3198 17.7703 -9.03418 -18.7079 -79.4377 25.9335
lowerback 12.7803 1.21871 -5.5737
upperback 3.50664 0.714445 -1.04664
thorax -3.53163 0.318929 1.93958
lowerneck -7.75128 -0.935668 -13.0006
upperneck 44.4111 -3.25071 5.64214
head 18.3112 -3.51606 4.29402
rclavicle 1.59028e-015 1.83379e-014
rhumerus -29.2327 -13.5601 -81.2251
rradius 37.4125
rwrist 5.89262
rhand -14.0769 9.36556
rfingers 7.12502
rthumb 12.0549 -20.2672
lclavicle 1.59028e-015 1.83379e-014
lhumerus -31.7176 4.18529 79.9252
lradius 39.7713
lwrist -1.14595
lhand -18.2991 24.4853
lfingers 7.12502
lthumb 7.98166 54.3146
rfemur -36.1485 6.7708 8.19807
rtibia 38.7262
rfoot -15.5771 -4.27867
rtoes 4.88903
lfemur 0.820293 -2.29827 -24.4325
ltibia 10.4676
lfoot -13.4929 -1.08949
ltoes -23.0262
467
root 15.3908 17.7756 -9.03219 -17.9858 -79.3783 25.2244
lowerback 12.6791 1.37937 -5.43535
upperback 3.51201 0.946756 -1.15029
thorax -3.48465 0.431883 1.71791
lowerneck -7.69153 -0.98475 -12.684
upperneck 44.5188 -3.42323 5.64145
head 18.3774 -3.53778 4.21262
rclavicle 2.10091e-014 -4.91992e-015
rhumerus -29.4682 -14.1123 -81.2951
rradius 37.184
rwrist 6.31831
rhand -13.9554 9.49955
rfingers 7.12502
rthumb 12.1721 -20.1263
lclavicle 2.10091e-014 -4.91992e-015
lhumerus -31.6797 3.73617 79.7116
lradius 40.2453
lwrist -0.69632
lhand -18.2341 25.5536
lfingers 7.12502
lthumb 8.04438 55.3805
rfemur -36.2152 6.4938 8.62113
rtibia 39.2974
rfoot -15.7735 -3.99813
rtoes 3.56224
lfemur 0.335253 -2.44574 -24.3014
ltibia 10.7998
lfoot -13.5451 -1.40755
ltoes -21.4186
468
root 15.4609 17.7839 -9.03173 -17.391 -79.34 24.599
lowerback 12.6474 1.29764 -5.46353
upperback 3.54624 0.842482 -1.07065
thorax -3.42547 0.37857 1.83416
lowerneck -7.97246 -0.827478 -12.9539
upperneck 44.7108 -3.05683 5.60515
head 18.5299 -3.44977 4.31355
rclavicle 2.14936e-015 8.59744e-015
rhumerus -29.4334 -13.8781 -81.3938
rradius 36.8726
rwrist 6.71601
rhand -13.8193 9.62227
rfingers 7.12502
rthumb 12.3033 -19.9958
lclavicle 2.14936e-015 8.59744e-015
lhumerus -31.808 4.21301 79.4061
lradius 40.6918
lwrist -0.18373
lhand -17.9347 26.307
lfingers 7.12502
lthumb 8.33333 56.1226
rfemur -36.1937 6.28146 9.06527
rtibia 39.8849
rfoot -15.9383 -3.86749
rtoes 1.56357
lfemur -0.0776726 -2.58711 -24.2043
ltibia 11.1356
lfoot -13.6352 -1.48514
ltoes -21.1767
469
root 15.5301 17.7977 -9.03334 -17.0744 -79.2791 24.1679
lowerback 12.7407 1.21484 -5.60459
upperback 3.582 0.714317 -0.951821
thorax -3.43219 0.314797 2.05719
lowerneck -8.16568 -0.655171 -13.3712
upperneck 44.7568 -2.66138 5.66943
head 18.5652 -3.35392 4.49038
rclavicle -4.84538e-015 8.54774e-015
rhumerus -29.377 -13.7882 -81.3832
rradius 36.5138
rwrist 7.26174
rhand -13.7325 9.69453
rfingers 7.12502
rthumb 12.387 -19.9185
lclavicle -4.84538e-015 8.54774e-015
lhumerus -31.9652 5.0234 79.128
lradius 41.0252
lwrist 0.318344
lhand -18.5128 26.752
lfingers 7.12502
lthumb 7.77545 56.589
rfemur -36.0289 6.11163 9.47167
rtibia 40.5042
rfoot -16.2843 -3.72206
rtoes 0.886908
lfemur -0.331665 -2.76663 -24.1746
ltibia 11.3991
lfoot -13.5622 -1.52498
ltoes -21
470
root 15.5967 17.8166 -9.03367 -16.8152 -79.2297 23.7954
lowerback 12.8043 1.27314 -5.63613
upperback 3.5984 0.782682 -0.941069
thorax -3.45534 0.348462 2.0749
lowerneck -7.94897 -0.592252 -13.0908
upperneck 44.4309 -2.47323 5.339
head 18.255 -3.24259 4.2936
rclavicle -2.27608e-014 -1.46107e-014
rhumerus -29.5059 -14.1668 -81.3605
rradius 36.2151
rwrist 7.55987
rhand -13.4735 9.92027
rfingers 7.12502
rthumb 12.6367 -19.6775
lclavicle -2.27608e-014 -1.46107e-014
lhumerus -32.0742 4.99113 78.9483
lradius 41.3999
lwrist 1.24806
lhand -19.6903 27.4197
lfingers 7.12502
lthumb 6.63881 57.2957
rfemur -35.8756 5.98862 9.8433
rtibia 41.1839
rfoot -16.5978 -3.56811
rtoes 0.261862
lfemur -0.50138 -2.84965 -24.1512
ltibia 11.548
lfoot -13.316 -1.74806
ltoes -19.9793
471
root 15.6598 17.8305 -9.03667 -16.3195 -79.1398 23.3016
lowerback 12.7331 1.32603 -5.62522
upperback 3.58699 0.859456 -0.946974
thorax -3.43422 0.386584 2.05114
lowerneck -7.43951 -0.619187 -11.9359
upperneck 43.6842 -2.14732 3.82506
head 17.5735 -3.04639 3.38617
rclavicle -2.11954e-014 2.85753e-014
rhumerus -29.6915 -14.1179 -81.4466
rradius 36.0327
rwrist 7.11201
rhand -13.2638 9.99643
rfingers 7.12502
rthumb 12.8389 -19.5887
lclavicle -2.11954e-014 2.85753e-014
lhumerus -32.2317 4.69241 78.7909
lradius 41.8734
lwrist 2.17189
lhand -20.5767 28.0192
lfingers 7.12502
lthumb 5.78303 57.9203
rfemur -35.8535 5.81166 10.193
rtibia 41.9303
rfoot -16.7967 -3.24956
rtoes -0.737602
lfemur -0.762473 -2.75926 -24.0898
ltibia 11.6189
lfoot -13.3232 -2.01579
ltoes -20.1918
472
root 15.7234 17.8371 -9.04162 -15.8243 -78.9344 22.8031
lowerback 12.7257 1.21073 -5.70638
upperback 3.5688 0.7016 -0.879568
thorax -3.43846 0.310079 2.19213
lowerneck -7.69711 -0.456325 -12.4503
upperneck 43.8607 -1.81722 4.03393
head 17.7213 -2.98087 3.63542
rclavicle -1.2511e-014 1.7344e-014
rhumerus -29.7916 -13.5358 -81.5569
rradius 35.8879
rwrist 6.63129
rhand -13.0759 9.98796
rfingers 7.12502
rthumb 13.0201 -19.5857
lclavicle -1.2511e-014 1.7344e-014
lhumerus -32.4939 5.13222 78.5141
lradius 42.311
lwrist 2.68507
lhand -20.3505 28.3371
lfingers 7.12502
lthumb 6.0014 58.2321
rfemur -35.8011 5.66819 10.4415
rtibia 42.7424
rfoot -17.1508 -2.81515
rtoes 0.191665
lfemur -1.02082 -2.63257 -24.0605
ltibia 11.6585
lfoot -13.5437 -2.20985
ltoes -21.9377
